<svg width="20" height="20" viewBox="0 0 20 20" fill="none" xmlns="http://www.w3.org/2000/svg">
<path d="M18 5.373V12.5C18 13.163 17.7366 13.7989 17.2678 14.2678C16.7989 14.7366 16.163 15 15.5 15H4.5C3.83696 15 3.20107 14.7366 2.73223 14.2678C2.26339 13.7989 2 13.163 2 12.5V5.373L9.746 9.931C9.82295 9.97638 9.91066 10.0003 10 10.0003C10.0893 10.0003 10.177 9.97638 10.254 9.931L18 5.373ZM15.5 2C16.1151 1.9999 16.7087 2.22661 17.1672 2.63674C17.6257 3.04687 17.9168 3.61164 17.985 4.223L10 8.92L2.015 4.223C2.08316 3.61164 2.37432 3.04687 2.83279 2.63674C3.29127 2.22661 3.88485 1.9999 4.5 2H15.5Z" fill="#333333"/>
</svg>
